<svg width="215" height="43" viewBox="0 0 215 43" fill="none" xmlns="http://www.w3.org/2000/svg">
<path d="M53.3477 29H38.9482V7.99414H53.3477V12.1982H43.1523V16.4023H50.0518V20.6064H43.1523V24.7959H53.3477V29ZM70.3105 29H65.418L62.2979 24.1953L59.1484 29H54.2559L59.9834 20.958L54.2559 13.2236H59.1484L62.2979 17.7207L65.418 13.2236H70.3105L64.5684 20.958L70.3105 29ZM75.7744 34.9766H71.7461V13.3115H72.7129L74.3096 15.2012C74.6709 14.8594 75.0664 14.5371 75.4961 14.2344C75.9258 13.9316 76.3701 13.6729 76.8291 13.458C77.2979 13.2334 77.7812 13.0576 78.2793 12.9307C78.7773 12.8037 79.2803 12.7402 79.7881 12.7402C80.8916 12.7402 81.9268 12.9404 82.8936 13.3408C83.8701 13.7314 84.7197 14.2881 85.4424 15.0107C86.1748 15.7334 86.751 16.6074 87.1709 17.6328C87.5908 18.6484 87.8008 19.7764 87.8008 21.0166C87.8008 22.3057 87.5908 23.4678 87.1709 24.5029C86.751 25.5283 86.1748 26.4023 85.4424 27.125C84.7197 27.8379 83.8701 28.3848 82.8936 28.7656C81.9268 29.1465 80.8916 29.3369 79.7881 29.3369C79.4365 29.3369 79.085 29.2979 78.7334 29.2197C78.3916 29.1416 78.0498 29.0391 77.708 28.9121C77.376 28.7754 77.0439 28.624 76.7119 28.458C76.3896 28.292 76.0771 28.1211 75.7744 27.9453V34.9766ZM83.7871 21.0166C83.7871 20.3525 83.6797 19.7568 83.4648 19.2295C83.2598 18.7021 82.9766 18.2578 82.6152 17.8965C82.2539 17.5254 81.8291 17.2422 81.3408 17.0469C80.8525 16.8516 80.335 16.7539 79.7881 16.7539C79.2412 16.7539 78.7236 16.8516 78.2354 17.0469C77.7568 17.2422 77.3369 17.5254 76.9756 17.8965C76.6143 18.2578 76.3262 18.7021 76.1113 19.2295C75.9062 19.7568 75.8037 20.3525 75.8037 21.0166C75.8037 21.6514 75.9062 22.2324 76.1113 22.7598C76.3262 23.2871 76.6143 23.7363 76.9756 24.1074C77.3369 24.4785 77.7568 24.7666 78.2354 24.9717C78.7236 25.1768 79.2412 25.2793 79.7881 25.2793C80.335 25.2793 80.8525 25.1768 81.3408 24.9717C81.8291 24.7666 82.2539 24.4785 82.6152 24.1074C82.9766 23.7363 83.2598 23.2871 83.4648 22.7598C83.6797 22.2324 83.7871 21.6514 83.7871 21.0166ZM94.0557 29H90.0273V7.07129H94.0557V29ZM112.278 21.0166C112.278 22.1885 112.068 23.2822 111.648 24.2979C111.229 25.3037 110.657 26.1777 109.935 26.9199C109.212 27.6523 108.362 28.2334 107.386 28.6631C106.419 29.083 105.379 29.293 104.266 29.293C103.162 29.293 102.122 29.083 101.146 28.6631C100.179 28.2334 99.3291 27.6523 98.5967 26.9199C97.874 26.1777 97.3027 25.3037 96.8828 24.2979C96.4629 23.2822 96.2529 22.1885 96.2529 21.0166C96.2529 19.8252 96.4629 18.7217 96.8828 17.7061C97.3027 16.6904 97.874 15.8164 98.5967 15.084C99.3291 14.3418 100.179 13.7607 101.146 13.3408C102.122 12.9209 103.162 12.7109 104.266 12.7109C105.379 12.7109 106.419 12.9111 107.386 13.3115C108.362 13.7021 109.212 14.2637 109.935 14.9961C110.657 15.7188 111.229 16.5928 111.648 17.6182C112.068 18.6338 112.278 19.7666 112.278 21.0166ZM108.25 21.0166C108.25 20.3721 108.143 19.791 107.928 19.2734C107.723 18.7461 107.439 18.2969 107.078 17.9258C106.717 17.5449 106.292 17.2568 105.804 17.0615C105.325 16.8564 104.812 16.7539 104.266 16.7539C103.719 16.7539 103.201 16.8564 102.713 17.0615C102.234 17.2568 101.814 17.5449 101.453 17.9258C101.102 18.2969 100.823 18.7461 100.618 19.2734C100.413 19.791 100.311 20.3721 100.311 21.0166C100.311 21.6221 100.413 22.1836 100.618 22.7012C100.823 23.2188 101.102 23.668 101.453 24.0488C101.814 24.4297 102.234 24.7324 102.713 24.957C103.201 25.1719 103.719 25.2793 104.266 25.2793C104.812 25.2793 105.325 25.1768 105.804 24.9717C106.292 24.7666 106.717 24.4785 107.078 24.1074C107.439 23.7363 107.723 23.2871 107.928 22.7598C108.143 22.2324 108.25 21.6514 108.25 21.0166ZM118.489 29H114.49V13.3115H115.457L116.775 15.1719C117.42 14.5859 118.152 14.1367 118.973 13.8242C119.793 13.502 120.643 13.3408 121.521 13.3408H125.052V17.3252H121.521C121.102 17.3252 120.706 17.4033 120.335 17.5596C119.964 17.7158 119.642 17.9307 119.368 18.2041C119.095 18.4775 118.88 18.7998 118.724 19.1709C118.567 19.542 118.489 19.9375 118.489 20.3574V29ZM132.859 25.1621C133.016 25.2109 133.172 25.2451 133.328 25.2646C133.484 25.2744 133.641 25.2793 133.797 25.2793C134.188 25.2793 134.563 25.2256 134.925 25.1182C135.286 25.0107 135.623 24.8594 135.936 24.6641C136.258 24.459 136.541 24.2148 136.785 23.9316C137.039 23.6387 137.244 23.3164 137.4 22.9648L140.33 25.9092C139.959 26.4365 139.529 26.9102 139.041 27.3301C138.562 27.75 138.04 28.1064 137.474 28.3994C136.917 28.6924 136.326 28.9121 135.701 29.0586C135.086 29.2148 134.451 29.293 133.797 29.293C132.693 29.293 131.653 29.0879 130.677 28.6777C129.71 28.2676 128.86 27.6963 128.128 26.9639C127.405 26.2314 126.834 25.3623 126.414 24.3564C125.994 23.3408 125.784 22.2275 125.784 21.0166C125.784 19.7764 125.994 18.6436 126.414 17.6182C126.834 16.5928 127.405 15.7188 128.128 14.9961C128.86 14.2734 129.71 13.7119 130.677 13.3115C131.653 12.9111 132.693 12.7109 133.797 12.7109C134.451 12.7109 135.091 12.7891 135.716 12.9453C136.341 13.1016 136.932 13.3262 137.488 13.6191C138.055 13.9121 138.582 14.2734 139.07 14.7031C139.559 15.123 139.988 15.5967 140.359 16.124L132.859 25.1621ZM134.91 16.915C134.725 16.8467 134.539 16.8027 134.354 16.7832C134.178 16.7637 133.992 16.7539 133.797 16.7539C133.25 16.7539 132.732 16.8564 132.244 17.0615C131.766 17.2568 131.346 17.54 130.984 17.9111C130.633 18.2822 130.354 18.7314 130.149 19.2588C129.944 19.7764 129.842 20.3623 129.842 21.0166C129.842 21.1631 129.847 21.3291 129.856 21.5146C129.876 21.7002 129.9 21.8906 129.93 22.0859C129.969 22.2715 130.013 22.4521 130.062 22.6279C130.11 22.8037 130.174 22.96 130.252 23.0967L134.91 16.915ZM147.01 29H142.806V7.99414H157.513V12.1982H147.01V16.4023H153.309V20.6064H147.01V29ZM163.973 9.04883C163.973 9.41992 163.899 9.7666 163.753 10.0889C163.616 10.4111 163.426 10.6943 163.182 10.9385C162.938 11.1729 162.649 11.3633 162.317 11.5098C161.995 11.6465 161.648 11.7148 161.277 11.7148C160.906 11.7148 160.555 11.6465 160.223 11.5098C159.9 11.3633 159.617 11.1729 159.373 10.9385C159.139 10.6943 158.948 10.4111 158.802 10.0889C158.665 9.7666 158.597 9.41992 158.597 9.04883C158.597 8.6875 158.665 8.3457 158.802 8.02344C158.948 7.69141 159.139 7.4082 159.373 7.17383C159.617 6.92969 159.9 6.73926 160.223 6.60254C160.555 6.45605 160.906 6.38281 161.277 6.38281C161.648 6.38281 161.995 6.45605 162.317 6.60254C162.649 6.73926 162.938 6.92969 163.182 7.17383C163.426 7.4082 163.616 7.69141 163.753 8.02344C163.899 8.3457 163.973 8.6875 163.973 9.04883ZM163.284 29H159.256V13.3115H163.284V29ZM170.374 29H166.346V7.07129H170.374V29ZM193.387 29H189.402V19.0391C189.402 18.7656 189.349 18.5068 189.241 18.2627C189.144 18.0186 189.002 17.8037 188.816 17.6182C188.631 17.4326 188.416 17.291 188.172 17.1934C187.928 17.0859 187.669 17.0322 187.396 17.0322C187.122 17.0322 186.863 17.0859 186.619 17.1934C186.385 17.291 186.175 17.4326 185.989 17.6182C185.813 17.8037 185.672 18.0186 185.564 18.2627C185.467 18.5068 185.418 18.7656 185.418 19.0391V29H181.419V19.0391C181.419 18.7656 181.365 18.5068 181.258 18.2627C181.16 18.0186 181.019 17.8037 180.833 17.6182C180.647 17.4326 180.433 17.291 180.188 17.1934C179.944 17.0859 179.686 17.0322 179.412 17.0322C179.139 17.0322 178.88 17.0859 178.636 17.1934C178.401 17.291 178.191 17.4326 178.006 17.6182C177.83 17.8037 177.688 18.0186 177.581 18.2627C177.483 18.5068 177.435 18.7656 177.435 19.0391V29H173.436V13.3115H174.402L175.486 14.5127C176.043 14.0439 176.653 13.6826 177.317 13.4287C177.991 13.165 178.689 13.0332 179.412 13.0332C180.145 13.0332 180.857 13.1699 181.551 13.4434C182.254 13.7168 182.869 14.1904 183.396 14.8643C183.641 14.5322 183.919 14.249 184.231 14.0146C184.544 13.7803 184.871 13.5898 185.213 13.4434C185.564 13.2969 185.926 13.1943 186.297 13.1357C186.668 13.0674 187.034 13.0332 187.396 13.0332C188.226 13.0332 189.002 13.1895 189.725 13.502C190.457 13.8145 191.092 14.2441 191.629 14.791C192.176 15.3281 192.605 15.9629 192.918 16.6953C193.23 17.4277 193.387 18.209 193.387 19.0391V29ZM204.93 29H195.789V25.0156H204.93C205.203 25.0156 205.438 24.918 205.633 24.7227C205.828 24.5273 205.926 24.293 205.926 24.0195C205.926 23.7363 205.828 23.5508 205.633 23.4629C205.438 23.375 205.203 23.3311 204.93 23.3311H200.77C200.076 23.3311 199.427 23.1992 198.821 22.9355C198.216 22.6719 197.688 22.3154 197.239 21.8662C196.79 21.4072 196.434 20.875 196.17 20.2695C195.916 19.6641 195.789 19.0146 195.789 18.3213C195.789 17.6279 195.916 16.9785 196.17 16.373C196.434 15.7676 196.79 15.2402 197.239 14.791C197.688 14.3418 198.216 13.9902 198.821 13.7363C199.427 13.4727 200.076 13.3408 200.77 13.3408H208.87V17.3252H200.77C200.496 17.3252 200.262 17.4229 200.066 17.6182C199.871 17.8135 199.773 18.0479 199.773 18.3213C199.773 18.6045 199.871 18.8486 200.066 19.0537C200.262 19.249 200.496 19.3467 200.77 19.3467H204.93C205.613 19.3467 206.258 19.4639 206.863 19.6982C207.469 19.9229 207.996 20.2402 208.445 20.6504C208.895 21.0605 209.251 21.5537 209.515 22.1299C209.778 22.7061 209.91 23.3359 209.91 24.0195C209.91 24.7129 209.778 25.3623 209.515 25.9678C209.251 26.5635 208.895 27.0908 208.445 27.5498C207.996 27.999 207.469 28.3555 206.863 28.6191C206.258 28.873 205.613 29 204.93 29Z" fill="white"/>
<path d="M0 2H26.4255L54 43L0 33.4333V2Z" fill="#053BA3"/>
</svg>
